<svg aria-hidden="true" xmlns="http://www.w3.org/2000/svg">
    <defs>
        <symbol id="icon-night" viewBox="0 0 96 96">
            <path
                d="M49.84,59.26a25.32,25.32,0,0,0,21.5-12,3,3,0,0,0-3.54-4.44A19.6,19.6,0,0,1,43.1,31.18a19.4,19.4,0,0,1,1.74-17,3,3,0,0,0-3.56-4.43A25.51,25.51,0,0,0,26,43.19,25.68,25.68,0,0,0,49.84,59.26ZM32,25.69a19.4,19.4,0,0,1,4.39-6.14,25.25,25.25,0,0,0,1.12,13.71A25.65,25.65,0,0,0,60.73,49.88,19.52,19.52,0,0,1,31.58,41,19.35,19.35,0,0,1,32,25.69Z" />
            <path d="M88,68H8a3,3,0,0,0,0,6H88a3,3,0,0,0,0-6Z" />
        </symbol>

        <symbol id="icon-light" viewBox="0 0 96 96">
            <path
                d="M24.35,40.07H27.3a20.51,20.51,0,0,0,4,9.52l-3.2,3.1a3,3,0,0,0,2.09,5.16A3,3,0,0,0,32.25,57l3.31-3.2a20.62,20.62,0,0,0,9.26,3.79v2.32a3,3,0,0,0,6,0V57.59a20.63,20.63,0,0,0,9.31-3.82L63.37,57a3,3,0,1,0,4.25-4.24l-3.23-3.22a20.62,20.62,0,0,0,4-9.48h3.31a3,3,0,0,0,0-6H68.34a20.59,20.59,0,0,0-4.25-9.89l3.53-3.53a3,3,0,1,0-4.25-4.25l-3.66,3.67a20.71,20.71,0,0,0-8.89-3.52v-3a3,3,0,0,0-6,0v3A20.59,20.59,0,0,0,36,20L32.33,16.4a3,3,0,0,0-4.24,4.25l3.49,3.49a20.54,20.54,0,0,0-4.28,9.93H24.35a3,3,0,0,0,0,6Zm13-13.44a14.77,14.77,0,1,1,.24,21.09l0,0c-.06-.07-.14-.11-.2-.17A14.79,14.79,0,0,1,37.37,26.63Z" />
            <path d="M88,68H8a3,3,0,0,0,0,6H88a3,3,0,0,0,0-6Z" />
        </symbol>
    </defs>
</svg>